<?xml version="1.0" ?><svg data-name="Filled Outline" id="Filled_Outline" viewBox="0 0 128 128" xmlns="http://www.w3.org/2000/svg"><title/><path d="M70.68,11.451C51.77,9.26,45.357,17.729,43.35,22.009a6.655,6.655,0,0,1-3.46,3.284c-14.814,6.3-22.833,26.274-18.618,28.072,2.914,1.243.4,10.3,2.559,18.586h80.517c.493-3,.75-14.063.155-21.566a4.793,4.793,0,0,1,1.536-3.883,6.075,6.075,0,0,0,2.16-4.539C108.643,35.569,87.874,13.909,70.68,11.451Z" style="fill:#3d60ac"/><path d="M23.831,70.951c-3.742,1.782-4.894,6.333-3.348,11.279,1.533,4.918,7.793,9.43,12.465,7.687l-1.8-18.928A8.07,8.07,0,0,0,23.831,70.951Z" style="fill:#f97d8c"/><path d="M104.348,70.951a8.068,8.068,0,0,0-7.311.038L95.232,89.917C99.9,91.66,106.164,87.148,107.7,82.23,109.243,77.284,108.09,72.733,104.348,70.951Z" style="fill:#f97d8c"/><path d="M97.037,70.989C96.716,58.03,91.548,42.6,80.54,34.367c-7.814-5.842-22.281-8.062-29.632-1.827a7.8,7.8,0,0,1-1.532,1.034C36.579,40.007,31.457,58.3,31.143,70.989a76.382,76.382,0,0,0,1.664,18.35c2.709,11.613,11.557,19.492,20.522,23.613a24.649,24.649,0,0,0,21.522,0c8.965-4.121,17.813-12,20.521-23.613A76.4,76.4,0,0,0,97.037,70.989Z" style="fill:#ff9ea7"/><path d="M85.946,27.931a1.5,1.5,0,0,1-.782-.22l-.7-.434c-5.73-3.563-20.953-13.027-33.509-.98a1.5,1.5,0,0,1-2.077-2.165c14.24-13.661,31.5-2.93,37.17.6l.684.423a1.5,1.5,0,0,1-.784,2.779Z" style="fill:#354c8e"/><path d="M88.582,56.841A17.221,17.221,0,0,0,75.2,55.553a1.925,1.925,0,0,0-1.23,2.233h0a1.933,1.933,0,0,0,2.155,1.523c2.354-.325,6.56-.728,9.552-.007,2.238.54,3.149.011,3.5-.633A1.393,1.393,0,0,0,88.582,56.841Z" style="fill:#332c44"/><rect height="8.13" rx="3.112" ry="3.112" style="fill:#332c44" width="6.225" x="77.592" y="66.2"/><path d="M39.6,56.841a17.224,17.224,0,0,1,13.381-1.288,1.926,1.926,0,0,1,1.23,2.233h0a1.933,1.933,0,0,1-2.155,1.523c-2.354-.325-6.56-.728-9.553-.007-2.238.54-3.148.011-3.5-.633A1.393,1.393,0,0,1,39.6,56.841Z" style="fill:#332c44"/><rect height="8.13" rx="3.112" ry="3.112" style="fill:#332c44" transform="translate(94.952 140.531) rotate(-180)" width="6.225" x="44.364" y="66.2"/><path d="M64.09,116.905c9.908,0,21.414-7.718,25.807-15.1C92.889,96.77,92.272,89,88.705,83.458,84.351,76.7,71.394,73.085,64.09,73.085S43.829,76.7,39.475,83.458C35.908,89,35.291,96.77,38.283,101.8,42.676,109.187,54.181,116.905,64.09,116.905Z" style="fill:#5dc7ec"/><path d="M85.856,27.932a1.489,1.489,0,0,1-.782-.221l-.7-.435C78.641,23.713,63.42,14.25,50.862,26.3a1.5,1.5,0,0,1-2.076-2.165c14.236-13.659,31.5-2.93,37.17.6l.684.423a1.5,1.5,0,0,1-.784,2.78Z" style="fill:#332c44"/><path d="M86.154,68.522a1.5,1.5,0,0,1-1-.382,7.105,7.105,0,0,0-7.6-.745,1.5,1.5,0,1,1-1.476-2.612,10.067,10.067,0,0,1,11.079,1.122,1.5,1.5,0,0,1-1,2.617Z" style="fill:#332c44"/><path d="M41.845,68.522a1.5,1.5,0,0,1-1-2.617,10.068,10.068,0,0,1,11.081-1.122A1.5,1.5,0,0,1,50.448,67.4a7.1,7.1,0,0,0-7.6.745A1.493,1.493,0,0,1,41.845,68.522Z" style="fill:#332c44"/><path d="M105.872,70.147a133.265,133.265,0,0,0,.036-19.881,3.288,3.288,0,0,1,1.064-2.667,7.56,7.56,0,0,0,2.633-5.532c.5-7.23-20.75-29.52-38.843-32.107C50.633,7.628,43.875,17.164,41.9,21.372a5.169,5.169,0,0,1-2.687,2.541c-12.8,5.441-20.646,20.513-20.651,26.907,0,2.66,1.271,3.6,2.029,3.925.655.278.654,3.3.653,5.5a46.167,46.167,0,0,0,.788,9.966c-3.533,2.362-4.748,7.1-3.071,12.464a14.176,14.176,0,0,0,7.115,7.976,10.508,10.508,0,0,0,4.6,1.143,8.144,8.144,0,0,0,1.133-.084,33.079,33.079,0,0,0,3.985,8.476,13.915,13.915,0,0,0,1.109,2.381c4.549,7.648,16.521,15.837,27.1,15.837s22.548-8.189,27.1-15.837a13.846,13.846,0,0,0,1.118-2.408,33.145,33.145,0,0,0,3.976-8.449,8.144,8.144,0,0,0,1.133.084,10.507,10.507,0,0,0,4.6-1.144,14.17,14.17,0,0,0,7.113-7.973C110.731,77.264,109.48,72.486,105.872,70.147ZM27.4,87.958a11.2,11.2,0,0,1-5.572-6.175c-1.364-4.367-.359-8.087,2.562-9.478a6.964,6.964,0,0,1,5.162-.364c0,1.292,0,2.84.053,4.593a7.4,7.4,0,0,0-3.525-.76,1.5,1.5,0,1,0,.252,2.99,4.629,4.629,0,0,1,3.5,1.716,65.162,65.162,0,0,0,1.228,8.3A7.219,7.219,0,0,1,27.4,87.958Zm7.54,3.708c-.288-.858-.543-1.746-.759-2.668a64.182,64.182,0,0,1-1.555-11.972,71.308,71.308,0,0,0,4.923,6.59A21.6,21.6,0,0,0,34.937,91.666Zm53.581,9.369c-4.043,6.8-15.106,14.37-24.518,14.37s-20.475-7.573-24.518-14.37c-2.637-4.434-2.136-11.641,1.164-16.764,4.018-6.237,16.36-9.686,23.354-9.686s19.336,3.449,23.354,9.686C90.654,89.394,91.155,96.6,88.518,101.035ZM93.822,89c-.213.913-.477,1.782-.762,2.63a21.584,21.584,0,0,0-2.606-8.012,71.4,71.4,0,0,0,4.923-6.589A64.162,64.162,0,0,1,93.822,89Zm-5.16-7.926c-5.443-6.2-17.4-9.487-24.662-9.487s-19.22,3.291-24.662,9.487c-1.8-2.2-5.207-6.625-6.773-10.365.409-13.295,6-30.063,17.4-35.793h0a9.25,9.25,0,0,0,1.826-1.23c2.765-2.346,6.749-3.368,10.991-3.368a29.467,29.467,0,0,1,16.772,5.252c11.2,8.371,15.543,24.105,15.883,35.142C93.869,74.444,90.464,78.869,88.662,81.072ZM81.348,33.166c-8.426-6.3-23.688-8.395-31.5-1.77a6.247,6.247,0,0,1-1.234.837C36.554,38.3,30.511,54.606,29.648,68.86a10.073,10.073,0,0,0-4.811.1,46.132,46.132,0,0,1-.592-8.713c0-4.026,0-7.206-2.457-8.252-.1-.093-.4-.819-.075-2.661,1.189-6.679,8.34-18.27,18.674-22.662a8.168,8.168,0,0,0,4.231-4.027c1.7-3.621,7.6-11.814,25.76-9.71,16.839,2.407,36.612,23.5,36.235,28.923a4.588,4.588,0,0,1-1.688,3.546,6.27,6.27,0,0,0-2.007,5.1,136.918,136.918,0,0,1,.057,18.409,10.1,10.1,0,0,0-4.625-.053C97.6,56.832,92.815,41.737,81.348,33.166Zm24.827,48.618a11.21,11.21,0,0,1-5.572,6.174,7.227,7.227,0,0,1-3.66.818,64.834,64.834,0,0,0,1.228-8.3,4.551,4.551,0,0,1,3.515-1.713,1.5,1.5,0,0,0,.237-2.991,7.407,7.407,0,0,0-3.525.761c.058-1.754.058-3.3.052-4.595a6.96,6.96,0,0,1,5.164.365C106.535,73.7,107.54,77.416,106.175,81.784Z" style="fill:#332c44"/><path d="M44.059,88.184a1.5,1.5,0,0,1-1-2.622A34.428,34.428,0,0,1,64,77.541a34.432,34.432,0,0,1,20.937,8.021,1.5,1.5,0,0,1-1.99,2.245A31.621,31.621,0,0,0,64,80.541a31.616,31.616,0,0,0-18.947,7.266A1.492,1.492,0,0,1,44.059,88.184Z" style="fill:#332c44"/></svg>